<mxfile host="app.diagrams.net" agent="Mozilla/5.0 (Windows NT 10.0; Win64; x64) AppleWebKit/537.36 (KHTML, like Gecko) Chrome/131.0.0.0 Safari/537.36 OPR/116.0.0.0" version="26.0.14">
  <diagram name="PÃ¡gina-1" id="2VRVSzIJAMpNBwr7SQWs">
    <mxGraphModel dx="491" dy="618" grid="1" gridSize="10" guides="1" tooltips="1" connect="1" arrows="1" fold="1" page="1" pageScale="1" pageWidth="827" pageHeight="1169" math="0" shadow="0">
      <root>
        <mxCell id="0" />
        <mxCell id="1" parent="0" />
        <mxCell id="hxnV0QngppU7owziajdQ-2" value="Inicio" style="strokeWidth=2;html=1;shape=mxgraph.flowchart.start_1;whiteSpace=wrap;" vertex="1" parent="1">
          <mxGeometry x="220" y="10" width="100" height="60" as="geometry" />
        </mxCell>
        <mxCell id="hxnV0QngppU7owziajdQ-3" value="Fim" style="strokeWidth=2;html=1;shape=mxgraph.flowchart.start_1;whiteSpace=wrap;" vertex="1" parent="1">
          <mxGeometry x="220" y="1000" width="100" height="60" as="geometry" />
        </mxCell>
        <mxCell id="hxnV0QngppU7owziajdQ-4" value="WRK-SALARIO-BRUTO" style="html=1;strokeWidth=2;shape=manualInput;whiteSpace=wrap;rounded=1;size=26;arcSize=11;" vertex="1" parent="1">
          <mxGeometry x="215" y="110" width="110" height="70" as="geometry" />
        </mxCell>
        <mxCell id="hxnV0QngppU7owziajdQ-5" style="edgeStyle=orthogonalEdgeStyle;rounded=0;orthogonalLoop=1;jettySize=auto;html=1;exitX=0.5;exitY=1;exitDx=0;exitDy=0;exitPerimeter=0;" edge="1" parent="1" source="hxnV0QngppU7owziajdQ-2">
          <mxGeometry relative="1" as="geometry">
            <mxPoint x="270" y="120" as="targetPoint" />
          </mxGeometry>
        </mxCell>
        <mxCell id="hxnV0QngppU7owziajdQ-6" value="WRK-IR = WRK-SALARIO-BRUTO * 0,15" style="rounded=1;whiteSpace=wrap;html=1;absoluteArcSize=1;arcSize=14;strokeWidth=2;" vertex="1" parent="1">
          <mxGeometry x="70" y="330" width="125" height="50" as="geometry" />
        </mxCell>
        <mxCell id="hxnV0QngppU7owziajdQ-10" style="edgeStyle=orthogonalEdgeStyle;rounded=0;orthogonalLoop=1;jettySize=auto;html=1;exitX=0;exitY=0.5;exitDx=0;exitDy=0;exitPerimeter=0;entryX=0.5;entryY=0;entryDx=0;entryDy=0;" edge="1" parent="1" source="hxnV0QngppU7owziajdQ-7" target="hxnV0QngppU7owziajdQ-6">
          <mxGeometry relative="1" as="geometry" />
        </mxCell>
        <mxCell id="hxnV0QngppU7owziajdQ-12" style="edgeStyle=orthogonalEdgeStyle;rounded=0;orthogonalLoop=1;jettySize=auto;html=1;exitX=1;exitY=0.5;exitDx=0;exitDy=0;exitPerimeter=0;entryX=0.5;entryY=0;entryDx=0;entryDy=0;" edge="1" parent="1" source="hxnV0QngppU7owziajdQ-7" target="hxnV0QngppU7owziajdQ-11">
          <mxGeometry relative="1" as="geometry" />
        </mxCell>
        <mxCell id="hxnV0QngppU7owziajdQ-7" value="WRK-SALARIO-BRUTO&lt;div&gt;&amp;gt;= 1000&lt;/div&gt;" style="strokeWidth=2;html=1;shape=mxgraph.flowchart.decision;whiteSpace=wrap;" vertex="1" parent="1">
          <mxGeometry x="180" y="220" width="180" height="80" as="geometry" />
        </mxCell>
        <mxCell id="hxnV0QngppU7owziajdQ-9" style="edgeStyle=orthogonalEdgeStyle;rounded=0;orthogonalLoop=1;jettySize=auto;html=1;exitX=0.5;exitY=1;exitDx=0;exitDy=0;entryX=0.5;entryY=0;entryDx=0;entryDy=0;entryPerimeter=0;" edge="1" parent="1" source="hxnV0QngppU7owziajdQ-4" target="hxnV0QngppU7owziajdQ-7">
          <mxGeometry relative="1" as="geometry" />
        </mxCell>
        <mxCell id="hxnV0QngppU7owziajdQ-11" value="WRK-IR = WRK-SALARIO-BRUTO * 0,1" style="rounded=1;whiteSpace=wrap;html=1;absoluteArcSize=1;arcSize=14;strokeWidth=2;" vertex="1" parent="1">
          <mxGeometry x="351" y="330" width="125" height="50" as="geometry" />
        </mxCell>
        <mxCell id="hxnV0QngppU7owziajdQ-13" value="V" style="text;html=1;align=center;verticalAlign=middle;resizable=0;points=[];autosize=1;strokeColor=none;fillColor=none;" vertex="1" parent="1">
          <mxGeometry x="155" y="218" width="30" height="30" as="geometry" />
        </mxCell>
        <mxCell id="hxnV0QngppU7owziajdQ-14" value="F" style="text;html=1;align=center;verticalAlign=middle;resizable=0;points=[];autosize=1;strokeColor=none;fillColor=none;" vertex="1" parent="1">
          <mxGeometry x="345" y="218" width="30" height="30" as="geometry" />
        </mxCell>
        <mxCell id="hxnV0QngppU7owziajdQ-19" style="edgeStyle=orthogonalEdgeStyle;rounded=0;orthogonalLoop=1;jettySize=auto;html=1;exitX=0.5;exitY=1;exitDx=0;exitDy=0;exitPerimeter=0;entryX=0.5;entryY=0;entryDx=0;entryDy=0;" edge="1" parent="1" source="hxnV0QngppU7owziajdQ-15" target="hxnV0QngppU7owziajdQ-18">
          <mxGeometry relative="1" as="geometry" />
        </mxCell>
        <mxCell id="hxnV0QngppU7owziajdQ-15" value="" style="strokeWidth=2;html=1;shape=mxgraph.flowchart.start_2;whiteSpace=wrap;" vertex="1" parent="1">
          <mxGeometry x="255" y="440" width="30" height="30" as="geometry" />
        </mxCell>
        <mxCell id="hxnV0QngppU7owziajdQ-16" style="edgeStyle=orthogonalEdgeStyle;rounded=0;orthogonalLoop=1;jettySize=auto;html=1;exitX=0.5;exitY=1;exitDx=0;exitDy=0;entryX=0;entryY=0.5;entryDx=0;entryDy=0;entryPerimeter=0;" edge="1" parent="1" source="hxnV0QngppU7owziajdQ-6" target="hxnV0QngppU7owziajdQ-15">
          <mxGeometry relative="1" as="geometry" />
        </mxCell>
        <mxCell id="hxnV0QngppU7owziajdQ-17" style="edgeStyle=orthogonalEdgeStyle;rounded=0;orthogonalLoop=1;jettySize=auto;html=1;exitX=0.5;exitY=1;exitDx=0;exitDy=0;entryX=1;entryY=0.5;entryDx=0;entryDy=0;entryPerimeter=0;" edge="1" parent="1" source="hxnV0QngppU7owziajdQ-11" target="hxnV0QngppU7owziajdQ-15">
          <mxGeometry relative="1" as="geometry" />
        </mxCell>
        <mxCell id="hxnV0QngppU7owziajdQ-23" style="edgeStyle=orthogonalEdgeStyle;rounded=0;orthogonalLoop=1;jettySize=auto;html=1;exitX=0.5;exitY=1;exitDx=0;exitDy=0;entryX=0.5;entryY=0;entryDx=0;entryDy=0;" edge="1" parent="1" source="hxnV0QngppU7owziajdQ-18" target="hxnV0QngppU7owziajdQ-22">
          <mxGeometry relative="1" as="geometry" />
        </mxCell>
        <mxCell id="hxnV0QngppU7owziajdQ-18" value="WRK-SALARIO-FINAL = WRK-SALARIO-BRUTO - WRK-IR" style="rounded=1;whiteSpace=wrap;html=1;absoluteArcSize=1;arcSize=14;strokeWidth=2;" vertex="1" parent="1">
          <mxGeometry x="207.5" y="510" width="125" height="50" as="geometry" />
        </mxCell>
        <mxCell id="hxnV0QngppU7owziajdQ-25" style="edgeStyle=orthogonalEdgeStyle;rounded=0;orthogonalLoop=1;jettySize=auto;html=1;exitX=0.5;exitY=1;exitDx=0;exitDy=0;entryX=0.5;entryY=0;entryDx=0;entryDy=0;" edge="1" parent="1" source="hxnV0QngppU7owziajdQ-20" target="hxnV0QngppU7owziajdQ-21">
          <mxGeometry relative="1" as="geometry" />
        </mxCell>
        <mxCell id="hxnV0QngppU7owziajdQ-20" value="WRK-IR = WRK-IRED" style="rounded=1;whiteSpace=wrap;html=1;absoluteArcSize=1;arcSize=14;strokeWidth=2;" vertex="1" parent="1">
          <mxGeometry x="207.5" y="690" width="125" height="50" as="geometry" />
        </mxCell>
        <mxCell id="hxnV0QngppU7owziajdQ-21" value="WRK-SALARIO-FINAL = WRK-SALARIO-FINALED" style="rounded=1;whiteSpace=wrap;html=1;absoluteArcSize=1;arcSize=14;strokeWidth=2;" vertex="1" parent="1">
          <mxGeometry x="207.5" y="780" width="125" height="50" as="geometry" />
        </mxCell>
        <mxCell id="hxnV0QngppU7owziajdQ-24" style="edgeStyle=orthogonalEdgeStyle;rounded=0;orthogonalLoop=1;jettySize=auto;html=1;exitX=0.5;exitY=1;exitDx=0;exitDy=0;entryX=0.5;entryY=0;entryDx=0;entryDy=0;" edge="1" parent="1" source="hxnV0QngppU7owziajdQ-22" target="hxnV0QngppU7owziajdQ-20">
          <mxGeometry relative="1" as="geometry" />
        </mxCell>
        <mxCell id="hxnV0QngppU7owziajdQ-22" value="WRK-SALARIO-BRUTO = WRK-SALARIO-BRUTOED" style="rounded=1;whiteSpace=wrap;html=1;absoluteArcSize=1;arcSize=14;strokeWidth=2;" vertex="1" parent="1">
          <mxGeometry x="207.5" y="600" width="125" height="50" as="geometry" />
        </mxCell>
        <mxCell id="hxnV0QngppU7owziajdQ-26" value="WRK-SALARIO-FINALED&lt;div&gt;WRK-SALARIO-BRUTO-ED&lt;/div&gt;&lt;div&gt;WRK=IRED&lt;/div&gt;" style="strokeWidth=2;html=1;shape=mxgraph.flowchart.display;whiteSpace=wrap;" vertex="1" parent="1">
          <mxGeometry x="185" y="870" width="170" height="90" as="geometry" />
        </mxCell>
        <mxCell id="hxnV0QngppU7owziajdQ-27" style="edgeStyle=orthogonalEdgeStyle;rounded=0;orthogonalLoop=1;jettySize=auto;html=1;exitX=0.5;exitY=1;exitDx=0;exitDy=0;entryX=0.5;entryY=0;entryDx=0;entryDy=0;entryPerimeter=0;" edge="1" parent="1" source="hxnV0QngppU7owziajdQ-21" target="hxnV0QngppU7owziajdQ-26">
          <mxGeometry relative="1" as="geometry" />
        </mxCell>
        <mxCell id="hxnV0QngppU7owziajdQ-28" style="edgeStyle=orthogonalEdgeStyle;rounded=0;orthogonalLoop=1;jettySize=auto;html=1;exitX=0.5;exitY=1;exitDx=0;exitDy=0;exitPerimeter=0;entryX=0.5;entryY=0;entryDx=0;entryDy=0;entryPerimeter=0;" edge="1" parent="1" source="hxnV0QngppU7owziajdQ-26" target="hxnV0QngppU7owziajdQ-3">
          <mxGeometry relative="1" as="geometry" />
        </mxCell>
      </root>
    </mxGraphModel>
  </diagram>
</mxfile>
